<?xml version="1.0" encoding="UTF-8"?>
<svg id="Layer_2" data-name="Layer 2" xmlns="http://www.w3.org/2000/svg" viewBox="0 0 442 442">
  <defs>
    <style>
      .cls-1 {
        fill: #ffc40c;
      }
    </style>
  </defs>
  <g id="Layer_2-2" data-name="Layer 2">
    <g>
      <path class="cls-1" d="M221,442c-59.03,0-114.53-22.99-156.27-64.73S0,280.03,0,221,22.99,106.47,64.73,64.73C106.47,22.99,161.97,0,221,0s114.53,22.99,156.27,64.73c41.74,41.74,64.73,97.24,64.73,156.27s-22.99,114.53-64.73,156.27-97.24,64.73-156.27,64.73ZM221,12C105.76,12,12,105.76,12,221s93.76,209,209,209,209-93.76,209-209S336.24,12,221,12Z"/>
      <path class="cls-1" d="M343,318c-10.28-3.95-23-4-30,1-8.96,6.4-14,18-27.89,17-13.33-.96-18.11-10-18.11-10,0,0,13-1,21-8,6.58-5.76,12-12,11-24-.91-10.96-8.94-16-18-16-14,0-22,11-22,11,0,0-3-11,10-30,14.43-21.09,37.58-34.03,45-50,13-28,8.03-51,8.03-51l5.18-5.04.76.92s-1.41,4-.41,7,4.86,2.66,7,2c2.91-.89,4-4,4-6s-3-5-3-5l-3.19-3.94,7.19-6.99,2.42,2.93s-1.41,4-.41,7,4.86,2.66,7,2c2.91-.89,4-4,4-6s-3-5-3-5l-4.83-5.96,7.26-7.07,3.43,4.15s-1.41,4-.41,7,4.86,2.66,7,2c2.91-.89,4-4,4-6s-3-5-3-5l-5.83-7.19.83-.81s3.33,2.68,6-1c2.93-4.04-2-7-2-7l-13-15s-1-4-5-3c-4.95,1.24-4,5-4,5l-.34.22-6.66-8.22s-2-2-5-2-6,2-7,5,0,6,3,6,5-2,5-2l4.32,5.24-8.36,5.3-5.4-6.66s-2-2-5-2-6,2-7,5,0,6,3,6,5-2,5-2l3.05,3.69-8.25,5.23-4.8-5.92s-2-2-5-2-6,2-7,5,0,6,3,6,5-2,5-2l2.44,2.96-91.7,58.17s-7.97,4.6-15.3,9c-5,3-9-4-9-4l-3-2-2.44,2s4.89,6.76,4.44,9c-1,5-5,1-5,1l-6-7-4-3-2,3,7.43,9s2.62,3,.57,5-6-3-6-3l-9.95-12-4.05-2-2,2,11,14s4,5,1,7-7-4-7-4l-14-18-5-2-1,3,14.89,23s4.11,4,.11,7c-3.39,2.55-6.85-1.6-6.85-1.6l-21.54-28-5.61-2.4-1,3,20,28s6.35,6.71,1,9c-7,3-11.75-4-11.75-4l-24.25-30-4-2-1,3,23.1,33s5.13,7,2.05,10c-3.08,3-8.92-2.5-8.92-2.5l-29.23-37.5-4-2-1,3,32.9,47s4.1,5,2.1,7c-3.23,3.23-6-1-6-1l-38-51-6-1-3,4s65.82,92,73,99,9.9,1,14,3,5.41,7.59,1,12c-6,6-11-1-11-1,0,0-68.15-92-78.4-106-10.26-14-15.22-27.04-16.6-38-2-16,2.57-39,20-43s33.07.64,42,13c13,18,18.46,26.33,29,34,11,8,33.57,10.15,49-4,12-11,9.91-29,9.91-29,0,0,20.47-10.15,26.09-27,7-21-8.5-37.38-3-59,3.12-12.27,14-22,28-22,18.03,0,23.78,11,23.78,11,0,0-5.65,0-10.78,5s-5.64,11.45-2,16c4,5,13,5,19,0,6.61-5.51,5.06-14,5.06-14,0,0,5.94-4,11.94,4,4.38,5.84,4.04,14.63,15,16,8,1,16-8,14-16-1.21-4.85-5.49-7.87-10-4-7,6,3.08,13.26-3,15-7,2-9-11-16-17-5.93-5.08-11-6-11-6,0,0-1-19-19-22-17.31-2.88-30.74,2.36-41,14-10.26,11.64-12.05,26-10,37s10.13,29,5,42-23.11,20-23.11,20c0,0-.89-11-5.89-17-6.46-7.75-13-13-27-12-10.02.72-23.05,11-21,25s17,15,17,15c0,0-9.27,9.07-27,4-14-4-14.89-13.18-30-22-20.23-11.82-37-6-42-3-4.62,2.77-18.99,11.98-19,40,0,24,13,40,13,40l-23,12s-6,2-8,7c-1.53,3.83,2,8,2,8l95,122s6.82,11,14,11c6,0,13-6,13-6,0,0,24.27-16,50.94-57s22.56-77.58,22.56-77.58l74.5-51.42s8-5,6-8c-1.76-2.64-9,3-9,3,0,0-116.44,74.29-119,76-3,2-4-2-4-2,0,0-2-6-6-10-2.7-2.7-6.08-3.16-7-5-1-2,1-4,3-5l108.67-73s8.99-8,25.33-5c8.31,1.53,15,8,15,8,0,0,7.97,8,9,18s-1.13,20-5.23,30-8.2,15-18.46,23c-10.26,8-25.2,13.19-37.31,20-16,9-22.84,24.61-27,35-2,5-4.18,20,3,31s24,15,24,15c0,0,3.85,5,10,9s14.02,5.61,22,5c13-1,16.25-8.83,24-14,6-4,16.18-4,24.38,1,8.2,5,15.62,16.58,15.62,28,0,12-1.8,19-10,27s-15.54,11-34,11-29-1-38-7c-11.91-7.94-12.92-15.81-24-28-10-11-21.69-15-34-15-8,0-15.49,1.49-24,10-7,7-7,18-7,18,0,0-4,2-10,9-5.14,5.99-10,13-17,14-10.58,1.51-17.59-2-17.59-2,0,0,1.62-3,.59-5s-3.9-3-8-3-6.74,4.26-2,9c3,3,6.52,5.77,17,7,17,2,22.94-7.94,28-13,7-7,11-8,11-8,0,0,2,5,7,8,3.15,1.89,10,3,15,1,5.95-2.38,7-10,4-15-2.78-4.63-12-5-12-5,0,0,3-8,16-6,8.95,1.38,13.96,5.04,28,18,13,12,30.32,14.88,50,16,35,2,47.44,0,59.74-10,12.31-10,15.54-33.28,13.26-44s-10.59-20-21-24ZM274,66c-7,4-12-2-11-7,.78-3.92,4-7,12-8,0,0,5.14,11.49-1,15ZM147,132c-1.05-6.32,3-16,13-17s12,6,12,12c0,10.44-7,16-7,16-9,0-17-5-18-11ZM164,252c0,10.49-8.51,19-19,19s-19-8.51-19-19,8.51-19,19-19,19,8.51,19,19ZM347,107s7.18,5.73,8,9c.49,1.94.03,3.42-.57,4.43l-12.11-14.93c3.12-.83,4.68,1.5,4.68,1.5ZM335.77,109.21l13.37,16.2-7.54,6.66-14.23-17.55c3.21-2.03,6.11-3.86,8.41-5.3ZM321.04,118.52l15.13,18.33-7.46,6.58-15.94-19.66c2.74-1.74,5.54-3.52,8.27-5.25ZM310,142c-8.3-6.64-18-5-18-5,0,0,6.33-4.04,14.44-9.21l16.85,20.42-4.29,3.79s-4-6-9-10ZM261,299s2-7,9-12,15-5,19-2c5.06,3.79,5.41,11.18,3,16-2,4-9.11,10.32-17,9-12-2-14-11-14-11ZM198,374c4.47,0,7,4,6,7-1.14,3.42-7,3-10,1-2.35-1.57-4-6-4-6,0,0,3-2,8-2Z"/>
    </g>
  </g>
</svg>